<svg id="Layer_1" data-name="Layer 1" xmlns="http://www.w3.org/2000/svg" viewBox="0 0 580 176"><defs><style>.cls-1{fill:#6f2277;}.cls-2{fill:#ed1163;}</style></defs><title>paymennt color svg</title><path class="cls-1" d="M17.09,166.86a7.65,7.65,0,0,1-2.34,5.61,7.65,7.65,0,0,1-5.61,2.34h-8V116.59q0-16.36,9.58-22.33a38.64,38.64,0,0,1,20.81-6,33.65,33.65,0,0,1,11.81,2.22A22.05,22.05,0,0,1,52.86,97q7,9.1,7,23.38,0,14.73-7,23.85a21.93,21.93,0,0,1-18,8.88A23.82,23.82,0,0,1,24.57,151a17.63,17.63,0,0,1-7.48-7.25ZM43.74,121q0-9.12-3.5-14a11.63,11.63,0,0,0-10.06-4.91A11.39,11.39,0,0,0,20.36,107q-3.27,4.44-3.27,14,0,8.89,3.5,13.33a11.62,11.62,0,0,0,10.06,4.91,11.18,11.18,0,0,0,9.59-4.91Q43.74,129.44,43.74,121Z"/><path class="cls-1" d="M103,149.32a28.68,28.68,0,0,1-10.4,3.16,92.94,92.94,0,0,1-9.71.58,24.5,24.5,0,0,1-14.73-4.56q-6.31-4.56-6.31-15.08,0-9.82,5.73-14a33,33,0,0,1,14.61-5.61,14.08,14.08,0,0,0,2.81-.35c1.08-.23,2.33-.43,3.74-.59,6.85-.93,10.29-3,10.29-6.08q0-3.49-3.63-4.55a23.8,23.8,0,0,0-6.66-1.06,17.09,17.09,0,0,0-5.85.94,6.34,6.34,0,0,0-3.74,3.51H63.51a18.06,18.06,0,0,1,6.55-11.93q6.31-5.37,18-5.38,13.08,0,19.64,4.45a15,15,0,0,1,6.78,13.09v21.28c0,6.23-1.14,11.1-3.39,14.61A20.72,20.72,0,0,1,103,149.32Zm-3.74-28.76a44.16,44.16,0,0,1-9.12,3l-5.38,1.17a13.81,13.81,0,0,0-6.08,3A9.53,9.53,0,0,0,77.08,133a7.58,7.58,0,0,0,2.1,5.61,8.8,8.8,0,0,0,6.08,1.88q6.54,0,10.29-3.75t3.74-10.28Z"/><path class="cls-1" d="M123.92,173.87V161h4.44a11.22,11.22,0,0,0,7.36-2.22q2.68-2.22,1.05-7.13L115,89.7h18l12.63,44,11-38.35q1.4-5.61,7.48-5.61h11.22l-23.84,70.84q-2.82,7.72-7,11c-2.8,1.87-7.41,2.81-13.79,2.81h-3.28a8.55,8.55,0,0,0-1.75-.35A16,16,0,0,0,123.92,173.87Z"/><path class="cls-2" d="M228.22,151.89H212.08V112.14c0-3.74-1.13-6.46-3.39-8.18a12.28,12.28,0,0,0-7.6-2.57,11.81,11.81,0,0,0-7.48,2.57c-2.18,1.72-3.27,4.44-3.27,8.18v39.75H174V115.42q0-15.9,8.3-21.28a36.28,36.28,0,0,1,18.36-5.85,47.31,47.31,0,0,1,10.52,1.17,22.16,22.16,0,0,1,9.35,4.68,20.81,20.81,0,0,1,8.3-4.33,47.15,47.15,0,0,1,9.94-1.52,35.24,35.24,0,0,1,18.94,5.38q8.64,5.39,8.65,21.75v36.47h-8.18a7.61,7.61,0,0,1-7.95-7.95v-31.8c0-3.74-1.14-6.46-3.39-8.18a12.52,12.52,0,0,0-15.2,0c-2.26,1.72-3.39,4.44-3.39,8.18v39.75Z"/><path class="cls-2" d="M314.63,132.72h11.69q-2.58,9.83-9.82,15-7.25,5.38-18.24,5.38-13.32,0-20.81-8.65Q270,136,270,120.33q0-15,7.25-23.38Q284.7,88.3,298,88.29q14,0,21.74,8.42,7.49,8.66,7.49,24.09v2.57A4,4,0,0,1,327,125H286.57q.23,7.26,3.51,10.76,3,3.74,9.12,3.74a13.15,13.15,0,0,0,6.78-1.64,3.23,3.23,0,0,0,1.28-.81l1.29-1.29a5,5,0,0,1,1.75-1.87A7,7,0,0,1,314.63,132.72Zm-28.06-18.24h23.85c-.32-4.21-1.4-7.32-3.27-9.35q-3-3.27-8.65-3.27a11.39,11.39,0,0,0-8.42,3.27Q286.79,108.4,286.57,114.48Z"/><path class="cls-2" d="M387.07,151.89h-8.19a7.61,7.61,0,0,1-7.95-7.95v-31.8c0-3.74-1.13-6.46-3.39-8.18a12.28,12.28,0,0,0-7.6-2.57,11.81,11.81,0,0,0-7.48,2.57c-2.18,1.72-3.27,4.44-3.27,8.18v39.75H332.82V115.42q0-15.9,8.3-21.28a36.28,36.28,0,0,1,18.36-5.85,35.2,35.2,0,0,1,18.93,5.38q8.65,5.39,8.66,21.75Z"/><path class="cls-2" d="M446.88,151.89h-8.19a7.62,7.62,0,0,1-7.95-7.95v-31.8c0-3.74-1.13-6.46-3.39-8.18a12.27,12.27,0,0,0-7.59-2.57,11.81,11.81,0,0,0-7.49,2.57c-2.18,1.72-3.27,4.44-3.27,8.18v39.75H392.63V115.42q0-15.9,8.3-21.28a36.28,36.28,0,0,1,18.36-5.85,35.24,35.24,0,0,1,18.94,5.38q8.64,5.39,8.65,21.75Z"/><path class="cls-2" d="M480,151.89a121.16,121.16,0,0,1-16.71-.23q-9-.71-9-11.46V71.46h8.42a7.39,7.39,0,0,1,5.38,2.34,7.65,7.65,0,0,1,2.34,5.61V89.93H480V93.2a7.57,7.57,0,0,1-2.33,5.73,7.83,7.83,0,0,1-5.62,2.22h-1.63v34.61c0,2.65,1.55,4,4.67,4H480Z"/><path class="cls-2" d="M500.11,61.33s-10.74-6.66,3.58-16.67c0,0,19.09-15.34,53.3-23.83,0,0,20.72-5.32,21.74,6.48,0,0,.29-23.46-12.41-26.11,0,0-23.53-4-68.2,24,0,0-15.94,9.26-12,22.88C486.1,48,487.88,59.64,500.11,61.33Z"/><path class="cls-1" d="M558.79,24.12s5,17.54-2.43,47.78c0,0,5.94,18.38,19.3,4.35,0,0,4.37-24.46,3.11-41.5C578.77,34.75,580,19.31,558.79,24.12Z"/><path class="cls-2" d="M513.52,43.73s8.91,2.29,15.88,23c0,0,9.44,32,23.13,31.81,0,0,18.11,1.24,22.23-18.29,0,0-11.91,16-21.16-7.4,0,0-8.22-18.52-10.26-21.58a14,14,0,0,0-10.13-5.8A186.62,186.62,0,0,0,513.52,43.73Z"/><path class="cls-1" d="M508.32,45.75s-7.25,4.14-7.88,8.77c0,0-.87,4.14,4.77,7.23,0,0,10.61,1.29,16.48,2.4,0,0,2.66,0,4.83,4.5,0,0-5.52-19-16.68-23.18a2.79,2.79,0,0,0-.43-.08A2.23,2.23,0,0,0,508.32,45.75Z"/></svg>
