<?xml version="1.0" encoding="utf-8"?>
<!-- Generator: Adobe Illustrator 23.0.2, SVG Export Plug-In . SVG Version: 6.00 Build 0)  -->
<svg version="1.1" id="Layer_1" xmlns="http://www.w3.org/2000/svg" xmlns:xlink="http://www.w3.org/1999/xlink" x="0px" y="0px"
	 viewBox="0 0 1230 337.08" style="enable-background:new 0 0 1230 337.08;" xml:space="preserve">
<style type="text/css">
	.st0{fill:#315377;}
	.st1{fill:#F18A00;}
</style>
<g>
	<g>
		<path class="st0" d="M173.76,289.16c-10.01,26.69-40.4,47.92-77.99,47.92C42.84,337.08,0,294.19,0,241.31
			c0-52.93,42.84-95.77,95.77-95.77c2.46,0,4.86,0.1,7.26,0.31v35.95c-2.4-0.31-4.81-0.47-7.26-0.47
			c-33.12,0-59.98,26.85-59.98,59.98c0,33.07,26.85,59.93,59.98,59.93c7.78,0,15.26-1.52,22.05-4.18c5.01-1.99,9.68-4.62,13.92-7.81
			L173.76,289.16z"/>
		<path class="st1" d="M177.5,171.24v83.47h-38.7l-0.1-159.14C138.7,42.79,179.53,0,235.87,0c52.78,0,95.57,42.79,95.57,95.57
			s-42.79,95.57-95.57,95.57c-6.54,0-14.25-0.66-20.42-1.91l0,0v-38.78h-0.01c6.27,2.25,14.35,3.48,21.4,3.48
			c32.78,0,59.35-26.57,59.35-59.35s-26.57-59.35-59.35-59.35c-29.36,0-59.35,26.57-59.35,59.35v76.66H177.5z"/>
	</g>
	<g>
		<path class="st1" d="M383.99,180V70.78c0-9.59,3.58-17.83,10.76-24.73c7.17-6.9,18.2-10.35,33.09-10.35
			c3.45,0,6.89,0.27,10.31,0.82c3.42,0.55,7.44,1.97,12.08,4.28c4.64,2.31,8.61,5.3,11.93,8.97s6.19,9.06,8.63,16.16
			c2.44,7.11,3.66,15.32,3.66,24.63c0,17.06-4.16,30.17-12.49,39.31c-8.33,9.15-20.24,13.72-35.74,13.72
			c-5.85,0-11.56-0.62-17.13-1.86v38.26L383.99,180L383.99,180z M409.08,122.79c5.78,0.82,10.91,1.22,15.4,1.22
			c8.09,0,14.26-2.36,18.51-7.09c4.25-4.72,6.37-13.07,6.37-25.03c0-12.24-1.6-21.08-4.79-26.51c-3.2-5.44-8.77-8.16-16.72-8.16
			c-12.51,0-18.76,3.74-18.76,11.21L409.08,122.79L409.08,122.79z"/>
		<path class="st1" d="M508.4,129.11c-8.5-9.24-12.75-22.5-12.75-39.77s4.25-30.52,12.75-39.77c8.5-9.24,20.68-13.87,36.56-13.87
			c15.87,0,28.06,4.63,36.56,13.87c8.5,9.25,12.75,22.51,12.75,39.77c0,17.27-4.25,30.53-12.75,39.77
			c-8.5,9.25-20.69,13.87-36.56,13.87S516.9,138.36,508.4,129.11z M526.71,63.13c-3.97,4.56-5.96,13.31-5.96,26.26
			s1.99,21.69,5.96,26.21c3.98,4.52,10.08,6.78,18.31,6.78s14.31-2.26,18.25-6.78s5.91-13.26,5.91-26.21
			c0-12.95-1.97-21.7-5.91-26.26c-3.94-4.55-10.03-6.83-18.25-6.83C536.79,56.3,530.69,58.57,526.71,63.13z"/>
		<path class="st1" d="M624.56,22.95V0h25.7v22.95H624.56z M624.97,141.35V37.12h25.09v104.22L624.97,141.35L624.97,141.35z"/>
		<path class="st1" d="M800.35,58.64V37.12h17.54V6.22h25.09v30.9h24.67v21.52h-24.67v51.4c0,4.49,0.94,7.52,2.81,9.08
			c1.87,1.57,5.18,2.34,9.94,2.34c4.49,0,8.47-0.75,11.93-2.24v20.7c-4.9,2.04-10.23,3.06-16.01,3.06c-0.2,0-0.37,0-0.51,0
			c-10.34,0-18.46-3.06-24.38-9.18c-5.91-6.12-8.87-14.55-8.87-25.29V58.64H800.35z"/>
		<path class="st0" d="M383.99,250.41c0-17.37,4.24-30.67,12.74-39.9c8.5-9.23,20.67-13.84,36.51-13.84
			c10.2,0,20.23,1.97,30.08,5.91v20.6c-8.22-3.33-16.86-5-25.9-5c-9.59,0-16.71,2.2-21.37,6.6s-6.99,12.94-6.99,25.62
			c0,12.55,2.33,21.06,6.99,25.53s11.77,6.7,21.37,6.7c8.63,0,17.27-1.73,25.9-5.2v20.6c-9.85,4.08-19.88,6.12-30.08,6.12
			c-15.84,0-28.01-4.63-36.51-13.89C388.23,280.99,383.99,267.71,383.99,250.41z"/>
		<path class="st0" d="M604.16,251.53c0-16.72,3.73-30.09,11.17-40.08c7.45-10,19.26-14.99,35.44-14.99
			c15.3,0,26.87,4.86,34.72,14.59c7.85,9.72,11.78,21.68,11.78,35.9c0,5.85-0.14,10.16-0.41,12.95h-67.6
			c0.68,9.04,3.38,15.09,8.1,18.15c4.73,3.06,10.86,4.59,18.41,4.59c12.24,0,24.07-2.68,35.49-8.05v20.19
			c-11.56,6.26-24.65,9.38-39.26,9.38c-4.63,0-8.97-0.37-13.05-1.12s-8.31-2.31-12.68-4.69c-4.38-2.38-8.14-5.41-11.29-9.08
			c-3.15-3.67-5.75-8.75-7.77-15.25C605.17,267.52,604.16,260.03,604.16,251.53z M629.25,242.56h42.02
			c-0.68-7.15-2.81-13.19-6.38-18.11c-3.57-4.92-8.48-7.39-14.73-7.39c-6.26,0-11.13,2.01-14.64,6.02
			C632.01,227.09,629.92,233.59,629.25,242.56z"/>
		<path class="st0" d="M717.77,250.41c0-17.37,4.24-30.67,12.74-39.9c8.5-9.23,20.66-13.84,36.51-13.84
			c10.2,0,20.23,1.97,30.08,5.91v20.6c-8.22-3.33-16.86-5-25.9-5c-9.59,0-16.71,2.2-21.37,6.6s-6.99,12.94-6.99,25.62
			c0,12.55,2.33,21.06,6.99,25.53s11.77,6.7,21.37,6.7c8.63,0,17.27-1.73,25.9-5.2v20.6c-9.85,4.08-19.88,6.12-30.08,6.12
			c-15.84,0-28.01-4.63-36.51-13.89C722.01,280.99,717.77,267.71,717.77,250.41z"/>
		<path class="st0" d="M820.15,302.52V169.43h25.09v67.11l35.08-38.24h33.25l-45.38,46.4l50.17,57.82h-31.72l-34.47-41.1l-6.93,7.04
			v34.06L820.15,302.52L820.15,302.52z"/>
		<path class="st0" d="M939.77,290.28c-8.5-9.24-12.74-22.5-12.74-39.77s4.25-30.52,12.74-39.77c8.5-9.24,20.68-13.87,36.56-13.87
			c15.87,0,28.06,4.63,36.56,13.87c8.5,9.25,12.75,22.51,12.75,39.77c0,17.27-4.25,30.53-12.75,39.77
			c-8.5,9.25-20.68,13.87-36.56,13.87C960.46,304.15,948.27,299.53,939.77,290.28z M958.08,224.3c-3.97,4.56-5.96,13.31-5.96,26.26
			s1.99,21.69,5.96,26.21c3.98,4.52,10.08,6.78,18.31,6.78c8.22,0,14.31-2.26,18.26-6.78c3.94-4.52,5.91-13.26,5.91-26.21
			c0-12.95-1.97-21.7-5.91-26.26c-3.94-4.55-10.03-6.83-18.26-6.83C968.16,217.47,962.06,219.75,958.08,224.3z"/>
		<path class="st0" d="M1048.99,255.3v-57h25.09v60.23c0,8.34,1.7,14.34,5.11,18s8.96,5.5,16.66,5.5c7.83,0,13.46-1.84,16.86-5.5
			c3.41-3.66,5.11-9.66,5.11-18V198.3h25.08v57c0,15.3-4.14,27.27-12.44,35.9c-8.29,8.64-19.83,12.95-34.62,12.95
			c-14.78,0-26.29-4.32-34.52-12.95C1053.1,282.57,1048.99,270.6,1048.99,255.3z"/>
		<path class="st1" d="M777.66,84.34v57h-25.09V81.12c0-8.34-1.7-14.34-5.11-18s-8.96-5.5-16.66-5.5c-7.83,0-13.46,1.84-16.86,5.5
			c-3.41,3.66-5.11,9.66-5.11,18v60.23h-25.08v-57c0-15.3,4.14-27.27,12.44-35.9c8.29-8.64,19.83-12.95,34.62-12.95
			s26.29,4.32,34.52,12.95C773.55,57.08,777.66,69.04,777.66,84.34z"/>
		<path class="st0" d="M1162.69,219.81v-21.52h17.54v-30.9h25.09v30.9H1230v21.52h-24.67v51.4c0,4.49,0.93,7.52,2.8,9.08
			c1.87,1.57,5.18,2.34,9.94,2.34c4.49,0,8.47-0.75,11.93-2.24v20.7c-4.9,2.04-10.23,3.06-16.01,3.06c-0.2,0-0.37,0-0.51,0
			c-10.34,0-18.46-3.06-24.38-9.18c-5.91-6.12-8.87-14.55-8.87-25.29v-49.87L1162.69,219.81L1162.69,219.81z"/>
	</g>
	<path class="st0" d="M581.3,245.52v57h-25.06v-60.21c0-8.35-1.73-14.37-5.14-18.03c-3.36-3.67-8.97-5.5-16.66-5.5
		c-7.79,0-13.45,1.83-16.86,5.5s-5.09,9.68-5.09,18.03v60.21h-25.11V168.81h24.65v32.3c6.37-2.95,13.86-4.43,22.41-4.43
		c14.82,0,26.28,4.33,34.54,12.94C577.18,218.27,581.3,230.19,581.3,245.52z"/>
</g>
</svg>
